<mxfile host="app.diagrams.net" modified="2023-11-21T16:55:09.808Z" agent="Mozilla/5.0 (Windows NT 10.0; Win64; x64) AppleWebKit/537.36 (KHTML, like Gecko) Chrome/119.0.0.0 Safari/537.36" etag="OZcb_XI7Q9-cDsPuBJRc" version="22.1.3" type="device">
  <diagram name="Страница — 1" id="ApuSdkKBPYPDiKR1HLbH">
    <mxGraphModel dx="2728" dy="833" grid="1" gridSize="10" guides="1" tooltips="1" connect="1" arrows="1" fold="1" page="1" pageScale="1" pageWidth="827" pageHeight="1169" math="0" shadow="0">
      <root>
        <mxCell id="0" />
        <mxCell id="1" parent="0" />
        <mxCell id="pfpJNphU8wRYEitO8FyI-1" value="" style="rounded=1;whiteSpace=wrap;html=1;fillColor=#dae8fc;strokeColor=#6c8ebf;" parent="1" vertex="1">
          <mxGeometry x="-1610" y="260" width="230" height="830" as="geometry" />
        </mxCell>
        <mxCell id="pfpJNphU8wRYEitO8FyI-2" value="" style="rounded=1;whiteSpace=wrap;html=1;fillColor=#f8cecc;strokeColor=#b85450;" parent="1" vertex="1">
          <mxGeometry x="-1380" y="260" width="600" height="1100" as="geometry" />
        </mxCell>
        <mxCell id="pfpJNphU8wRYEitO8FyI-3" value="" style="rounded=1;whiteSpace=wrap;html=1;fillColor=#d5e8d4;strokeColor=#82b366;" parent="1" vertex="1">
          <mxGeometry x="-780" y="430" width="370" height="570" as="geometry" />
        </mxCell>
        <mxCell id="pfpJNphU8wRYEitO8FyI-4" value="&lt;font style=&quot;font-size: 36px;&quot;&gt;RAW&lt;/font&gt;" style="text;html=1;strokeColor=none;fillColor=none;align=center;verticalAlign=middle;whiteSpace=wrap;rounded=0;" parent="1" vertex="1">
          <mxGeometry x="-1552.5" y="215" width="115" height="50" as="geometry" />
        </mxCell>
        <mxCell id="pfpJNphU8wRYEitO8FyI-5" value="&lt;font style=&quot;vertical-align: inherit;&quot;&gt;&lt;font style=&quot;vertical-align: inherit; font-size: 36px;&quot;&gt;CORE&lt;/font&gt;&lt;/font&gt;" style="text;html=1;strokeColor=none;fillColor=none;align=center;verticalAlign=middle;whiteSpace=wrap;rounded=0;" parent="1" vertex="1">
          <mxGeometry x="-1152.5" y="200" width="145" height="50" as="geometry" />
        </mxCell>
        <mxCell id="pfpJNphU8wRYEitO8FyI-6" value="&lt;font style=&quot;vertical-align: inherit;&quot;&gt;&lt;font style=&quot;vertical-align: inherit; font-size: 36px;&quot;&gt;МART&lt;/font&gt;&lt;/font&gt;" style="text;html=1;strokeColor=none;fillColor=none;align=center;verticalAlign=middle;whiteSpace=wrap;rounded=0;" parent="1" vertex="1">
          <mxGeometry x="-742.5" y="380" width="295" height="40" as="geometry" />
        </mxCell>
        <mxCell id="pfpJNphU8wRYEitO8FyI-7" style="edgeStyle=orthogonalEdgeStyle;rounded=0;orthogonalLoop=1;jettySize=auto;html=1;exitX=0.5;exitY=1;exitDx=0;exitDy=0;" parent="1" source="pfpJNphU8wRYEitO8FyI-1" target="pfpJNphU8wRYEitO8FyI-1" edge="1">
          <mxGeometry relative="1" as="geometry" />
        </mxCell>
        <mxCell id="699Mtnb7MZ2smKBeBavD-11" style="edgeStyle=orthogonalEdgeStyle;rounded=0;orthogonalLoop=1;jettySize=auto;html=1;entryX=0.5;entryY=0;entryDx=0;entryDy=0;" edge="1" parent="1" source="pfpJNphU8wRYEitO8FyI-8" target="pfpJNphU8wRYEitO8FyI-11">
          <mxGeometry relative="1" as="geometry" />
        </mxCell>
        <mxCell id="699Mtnb7MZ2smKBeBavD-12" style="edgeStyle=orthogonalEdgeStyle;rounded=0;orthogonalLoop=1;jettySize=auto;html=1;entryX=0.5;entryY=1;entryDx=0;entryDy=0;" edge="1" parent="1" source="pfpJNphU8wRYEitO8FyI-8" target="699Mtnb7MZ2smKBeBavD-2">
          <mxGeometry relative="1" as="geometry" />
        </mxCell>
        <mxCell id="pfpJNphU8wRYEitO8FyI-8" value="&lt;pre style=&quot;margin-top: 0px; margin-bottom: 4px; padding: 10px; box-sizing: border-box; border: 1px solid var(--cib-color-stroke-neutral-primary); background: var(--cib-color-syntax-background-surface); border-radius: var(--cib-border-radius-large); color: rgba(0, 0, 0, 0.894); line-height: 0%;&quot;&gt;&lt;code style=&quot;line-height: var(--cib-type-body1-line-height); font-variation-settings: var(--cib-type-body1-font-variation-settings);&quot;&gt;&lt;b style=&quot;&quot;&gt;&lt;font style=&quot;font-size: 18px;&quot;&gt;Клиенты&lt;/font&gt;&lt;/b&gt;&lt;/code&gt;&lt;/pre&gt;&lt;pre style=&quot;margin-top: 0px; margin-bottom: 4px; padding: 10px; box-sizing: border-box; border: 1px solid var(--cib-color-stroke-neutral-primary); background: var(--cib-color-syntax-background-surface); border-radius: var(--cib-border-radius-large); font-size: 14px; line-height: 0%;&quot;&gt;&lt;code style=&quot;color: rgba(0, 0, 0, 0.894); font-size: var(--cib-type-body1-font-size); line-height: var(--cib-type-body1-line-height); font-weight: var(--cib-type-body1-font-weight); font-variation-settings: var(--cib-type-body1-font-variation-settings);&quot;&gt;  (&lt;/code&gt;&lt;font color=&quot;#ff3333&quot;&gt;id личного кабинета PK&lt;/font&gt;&lt;span style=&quot;color: rgba(0, 0, 0, 0.894);&quot;&gt;,&lt;/span&gt;&lt;/pre&gt;&lt;pre style=&quot;margin-top: 0px; margin-bottom: 4px; padding: 10px; box-sizing: border-box; border: 1px solid var(--cib-color-stroke-neutral-primary); background: var(--cib-color-syntax-background-surface); border-radius: var(--cib-border-radius-large); color: rgba(0, 0, 0, 0.894); font-size: 14px; line-height: 0%;&quot;&gt;&lt;code style=&quot;font-size: var(--cib-type-body1-font-size); line-height: var(--cib-type-body1-line-height); font-weight: var(--cib-type-body1-font-weight); font-variation-settings: var(--cib-type-body1-font-variation-settings);&quot;&gt;  ФИО,&lt;/code&gt;&lt;/pre&gt;&lt;pre style=&quot;margin-top: 0px; margin-bottom: 4px; padding: 10px; box-sizing: border-box; border: 1px solid var(--cib-color-stroke-neutral-primary); background: var(--cib-color-syntax-background-surface); border-radius: var(--cib-border-radius-large); color: rgba(0, 0, 0, 0.894); font-size: 14px; line-height: 0%;&quot;&gt;&lt;code style=&quot;font-size: var(--cib-type-body1-font-size); line-height: var(--cib-type-body1-line-height); font-weight: var(--cib-type-body1-font-weight); font-variation-settings: var(--cib-type-body1-font-variation-settings);&quot;&gt;  пол,&lt;/code&gt;&lt;/pre&gt;&lt;pre style=&quot;margin-top: 0px; margin-bottom: 4px; padding: 10px; box-sizing: border-box; border: 1px solid var(--cib-color-stroke-neutral-primary); background: var(--cib-color-syntax-background-surface); border-radius: var(--cib-border-radius-large); color: rgba(0, 0, 0, 0.894); font-size: 14px; line-height: 0%;&quot;&gt;&lt;code style=&quot;font-size: var(--cib-type-body1-font-size); line-height: var(--cib-type-body1-line-height); font-weight: var(--cib-type-body1-font-weight); font-variation-settings: var(--cib-type-body1-font-variation-settings);&quot;&gt;  дата рождения&lt;/code&gt;)&lt;/pre&gt;" style="rounded=1;whiteSpace=wrap;html=1;align=left;" parent="1" vertex="1">
          <mxGeometry x="-1320" y="450" width="230" height="140" as="geometry" />
        </mxCell>
        <mxCell id="699Mtnb7MZ2smKBeBavD-10" style="edgeStyle=orthogonalEdgeStyle;rounded=0;orthogonalLoop=1;jettySize=auto;html=1;entryX=0;entryY=0.5;entryDx=0;entryDy=0;" edge="1" parent="1" source="pfpJNphU8wRYEitO8FyI-10" target="pfpJNphU8wRYEitO8FyI-11">
          <mxGeometry relative="1" as="geometry">
            <Array as="points">
              <mxPoint x="-1230" y="690" />
            </Array>
          </mxGeometry>
        </mxCell>
        <mxCell id="699Mtnb7MZ2smKBeBavD-14" style="edgeStyle=orthogonalEdgeStyle;rounded=0;orthogonalLoop=1;jettySize=auto;html=1;" edge="1" parent="1" source="pfpJNphU8wRYEitO8FyI-10" target="pfpJNphU8wRYEitO8FyI-17">
          <mxGeometry relative="1" as="geometry">
            <Array as="points">
              <mxPoint x="-1265" y="1010" />
              <mxPoint x="-1265" y="1010" />
            </Array>
          </mxGeometry>
        </mxCell>
        <mxCell id="pfpJNphU8wRYEitO8FyI-10" value="&lt;pre style=&quot;margin-top: 0px; margin-bottom: 4px; padding: 10px; box-sizing: border-box; border: 1px solid var(--cib-color-stroke-neutral-primary); background: var(--cib-color-syntax-background-surface); border-radius: var(--cib-border-radius-large); line-height: 0%;&quot;&gt;&lt;pre style=&quot;color: rgba(0, 0, 0, 0.894); margin-top: 0px; margin-bottom: 4px; padding: 10px; box-sizing: border-box; border: 1px solid var(--cib-color-stroke-neutral-primary); background: var(--cib-color-syntax-background-surface); border-radius: var(--cib-border-radius-large);&quot;&gt;&lt;code style=&quot;line-height: var(--cib-type-body1-line-height); font-variation-settings: var(--cib-type-body1-font-variation-settings);&quot;&gt;&lt;font style=&quot;font-size: 18px;&quot;&gt;&lt;b&gt;Товары&lt;/b&gt;&lt;/font&gt;&lt;/code&gt;&lt;/pre&gt;&lt;pre style=&quot;font-size: 14px; margin-top: 0px; margin-bottom: 4px; padding: 10px; box-sizing: border-box; border: 1px solid var(--cib-color-stroke-neutral-primary); background: var(--cib-color-syntax-background-surface); border-radius: var(--cib-border-radius-large);&quot;&gt;&lt;code style=&quot;font-size: var(--cib-type-body1-font-size); line-height: var(--cib-type-body1-line-height); font-weight: var(--cib-type-body1-font-weight); font-variation-settings: var(--cib-type-body1-font-variation-settings);&quot;&gt;&lt;font color=&quot;rgba(0, 0, 0, 0.894)&quot;&gt;  (&lt;/font&gt;&lt;font color=&quot;#ff0000&quot;&gt;id товара PK&lt;/font&gt;&lt;font color=&quot;rgba(0, 0, 0, 0.894)&quot;&gt;,&lt;/font&gt;&lt;/code&gt;&lt;/pre&gt;&lt;pre style=&quot;color: rgba(0, 0, 0, 0.894); font-size: 14px; margin-top: 0px; margin-bottom: 4px; padding: 10px; box-sizing: border-box; border: 1px solid var(--cib-color-stroke-neutral-primary); background: var(--cib-color-syntax-background-surface); border-radius: var(--cib-border-radius-large);&quot;&gt;&lt;code style=&quot;font-size: var(--cib-type-body1-font-size); line-height: var(--cib-type-body1-line-height); font-weight: var(--cib-type-body1-font-weight); font-variation-settings: var(--cib-type-body1-font-variation-settings);&quot;&gt;  название товара,&lt;/code&gt;&lt;/pre&gt;&lt;pre style=&quot;color: rgba(0, 0, 0, 0.894); font-size: 14px; margin-top: 0px; margin-bottom: 4px; padding: 10px; box-sizing: border-box; border: 1px solid var(--cib-color-stroke-neutral-primary); background: var(--cib-color-syntax-background-surface); border-radius: var(--cib-border-radius-large);&quot;&gt;&lt;code style=&quot;font-size: var(--cib-type-body1-font-size); line-height: var(--cib-type-body1-line-height); font-weight: var(--cib-type-body1-font-weight); font-variation-settings: var(--cib-type-body1-font-variation-settings);&quot;&gt;  цена,&lt;/code&gt;&lt;/pre&gt;&lt;pre style=&quot;font-size: 14px; margin-top: 0px; margin-bottom: 4px; padding: 10px; box-sizing: border-box; border: 1px solid var(--cib-color-stroke-neutral-primary); background: var(--cib-color-syntax-background-surface); border-radius: var(--cib-border-radius-large);&quot;&gt;&lt;code style=&quot;font-size: var(--cib-type-body1-font-size); line-height: var(--cib-type-body1-line-height); font-weight: var(--cib-type-body1-font-weight); font-variation-settings: var(--cib-type-body1-font-variation-settings);&quot;&gt;&lt;font color=&quot;rgba(0, 0, 0, 0.894)&quot;&gt;  &lt;/font&gt;&lt;font color=&quot;#006600&quot;&gt;id_брендa FK&lt;/font&gt;&lt;font color=&quot;rgba(0, 0, 0, 0.894)&quot;&gt;,&lt;/font&gt;&lt;/code&gt;&lt;/pre&gt;&lt;pre style=&quot;color: rgba(0, 0, 0, 0.894); font-size: 14px; margin-top: 0px; margin-bottom: 4px; padding: 10px; box-sizing: border-box; border: 1px solid var(--cib-color-stroke-neutral-primary); background: var(--cib-color-syntax-background-surface); border-radius: var(--cib-border-radius-large);&quot;&gt;&lt;code style=&quot;font-size: var(--cib-type-body1-font-size); line-height: var(--cib-type-body1-line-height); font-weight: var(--cib-type-body1-font-weight); font-variation-settings: var(--cib-type-body1-font-variation-settings);&quot;&gt;  модель товара,&lt;/code&gt;&lt;/pre&gt;&lt;pre style=&quot;font-size: 14px; margin-top: 0px; margin-bottom: 4px; padding: 10px; box-sizing: border-box; border: 1px solid var(--cib-color-stroke-neutral-primary); background: var(--cib-color-syntax-background-surface); border-radius: var(--cib-border-radius-large);&quot;&gt;&lt;code style=&quot;font-size: var(--cib-type-body1-font-size); line-height: var(--cib-type-body1-line-height); font-weight: var(--cib-type-body1-font-weight); font-variation-settings: var(--cib-type-body1-font-variation-settings);&quot;&gt;&lt;font color=&quot;rgba(0, 0, 0, 0.894)&quot;&gt;  &lt;/font&gt;&lt;font color=&quot;#006600&quot;&gt;id_категории FK&lt;/font&gt;&lt;font color=&quot;rgba(0, 0, 0, 0.894)&quot;&gt;,&lt;/font&gt;&lt;/code&gt;&lt;/pre&gt;&lt;pre style=&quot;color: rgba(0, 0, 0, 0.894); font-size: 14px; margin-top: 0px; margin-bottom: 4px; padding: 10px; box-sizing: border-box; border: 1px solid var(--cib-color-stroke-neutral-primary); background: var(--cib-color-syntax-background-surface); border-radius: var(--cib-border-radius-large);&quot;&gt;&lt;code style=&quot;font-size: var(--cib-type-body1-font-size); line-height: var(--cib-type-body1-line-height); font-weight: var(--cib-type-body1-font-weight); font-variation-settings: var(--cib-type-body1-font-variation-settings);&quot;&gt;  цена)&lt;/code&gt;&lt;/pre&gt;&lt;/pre&gt;" style="rounded=1;whiteSpace=wrap;html=1;align=left;" parent="1" vertex="1">
          <mxGeometry x="-1340" y="750" width="210" height="200" as="geometry" />
        </mxCell>
        <mxCell id="pfpJNphU8wRYEitO8FyI-11" value="&lt;pre style=&quot;margin-top: 0px; margin-bottom: 4px; padding: 10px; box-sizing: border-box; border: 1px solid var(--cib-color-stroke-neutral-primary); background: var(--cib-color-syntax-background-surface); border-radius: var(--cib-border-radius-large); line-height: 0%;&quot;&gt;&lt;pre style=&quot;color: rgba(0, 0, 0, 0.894); margin-top: 0px; margin-bottom: 4px; padding: 10px; box-sizing: border-box; border: 1px solid var(--cib-color-stroke-neutral-primary); background: var(--cib-color-syntax-background-surface); border-radius: var(--cib-border-radius-large);&quot;&gt;&lt;code style=&quot;line-height: var(--cib-type-body1-line-height); font-variation-settings: var(--cib-type-body1-font-variation-settings);&quot;&gt;&lt;b style=&quot;&quot;&gt;&lt;font style=&quot;font-size: 18px;&quot;&gt;Продажи&lt;/font&gt;&lt;/b&gt;&lt;/code&gt;&lt;/pre&gt;&lt;pre style=&quot;font-size: 14px; margin-top: 0px; margin-bottom: 4px; padding: 10px; box-sizing: border-box; border: 1px solid var(--cib-color-stroke-neutral-primary); background: var(--cib-color-syntax-background-surface); border-radius: var(--cib-border-radius-large);&quot;&gt;&lt;code style=&quot;font-size: var(--cib-type-body1-font-size); line-height: var(--cib-type-body1-line-height); font-weight: var(--cib-type-body1-font-weight); font-variation-settings: var(--cib-type-body1-font-variation-settings);&quot;&gt;&lt;font color=&quot;rgba(0, 0, 0, 0.894)&quot;&gt;  (&lt;/font&gt;&lt;font color=&quot;#ff0000&quot;&gt;id продажи PK&lt;/font&gt;&lt;font color=&quot;rgba(0, 0, 0, 0.894)&quot;&gt;,&lt;/font&gt;&lt;/code&gt;&lt;/pre&gt;&lt;pre style=&quot;font-size: 14px; margin-top: 0px; margin-bottom: 4px; padding: 10px; box-sizing: border-box; border: 1px solid var(--cib-color-stroke-neutral-primary); background: var(--cib-color-syntax-background-surface); border-radius: var(--cib-border-radius-large);&quot;&gt;&lt;code style=&quot;font-size: var(--cib-type-body1-font-size); line-height: var(--cib-type-body1-line-height); font-weight: var(--cib-type-body1-font-weight); font-variation-settings: var(--cib-type-body1-font-variation-settings);&quot;&gt;&lt;font color=&quot;rgba(0, 0, 0, 0.894)&quot;&gt;  &lt;/font&gt;&lt;font color=&quot;#006600&quot;&gt;id личного кабинета FK&lt;/font&gt;&lt;font color=&quot;rgba(0, 0, 0, 0.894)&quot;&gt;,&lt;br&gt;&lt;/font&gt;&lt;/code&gt;&lt;font color=&quot;rgba(0, 0, 0, 0.894)&quot;&gt;&lt;br&gt;&lt;/font&gt;&lt;/pre&gt;&lt;pre style=&quot;font-size: 14px; margin-top: 0px; margin-bottom: 4px; padding: 10px; box-sizing: border-box; border: 1px solid var(--cib-color-stroke-neutral-primary); background: var(--cib-color-syntax-background-surface); border-radius: var(--cib-border-radius-large);&quot;&gt;&lt;span style=&quot;color: rgba(0, 0, 0, 0.894);&quot;&gt;  &lt;/span&gt;&lt;font color=&quot;#336600&quot;&gt;id товара FK&lt;/font&gt;&lt;font color=&quot;rgba(0, 0, 0, 0.894)&quot;&gt;, &lt;/font&gt;&lt;/pre&gt;&lt;pre style=&quot;color: rgba(0, 0, 0, 0.894); font-size: 14px; margin-top: 0px; margin-bottom: 4px; padding: 10px; box-sizing: border-box; border: 1px solid var(--cib-color-stroke-neutral-primary); background: var(--cib-color-syntax-background-surface); border-radius: var(--cib-border-radius-large);&quot;&gt;&lt;code style=&quot;font-size: var(--cib-type-body1-font-size); line-height: var(--cib-type-body1-line-height); font-weight: var(--cib-type-body1-font-weight); font-variation-settings: var(--cib-type-body1-font-variation-settings);&quot;&gt;  время продажи,&lt;/code&gt;&lt;/pre&gt;&lt;pre style=&quot;color: rgba(0, 0, 0, 0.894); font-size: 14px; margin-top: 0px; margin-bottom: 4px; padding: 10px; box-sizing: border-box; border: 1px solid var(--cib-color-stroke-neutral-primary); background: var(--cib-color-syntax-background-surface); border-radius: var(--cib-border-radius-large);&quot;&gt;&lt;code style=&quot;font-size: var(--cib-type-body1-font-size); line-height: var(--cib-type-body1-line-height); font-weight: var(--cib-type-body1-font-weight); font-variation-settings: var(--cib-type-body1-font-variation-settings);&quot;&gt;  сумма)&lt;/code&gt;&lt;/pre&gt;&lt;/pre&gt;" style="rounded=1;whiteSpace=wrap;html=1;align=left;" parent="1" vertex="1">
          <mxGeometry x="-1080" y="610" width="210" height="160" as="geometry" />
        </mxCell>
        <mxCell id="pfpJNphU8wRYEitO8FyI-13" value="&lt;pre style=&quot;margin-top: 0px; margin-bottom: 4px; padding: 10px; box-sizing: border-box; border: 1px solid var(--cib-color-stroke-neutral-primary); background: var(--cib-color-syntax-background-surface); border-radius: var(--cib-border-radius-large); color: rgba(0, 0, 0, 0.894); font-size: 14px; line-height: 0%;&quot;&gt;&lt;pre style=&quot;margin-top: 0px; margin-bottom: 4px; padding: 10px; box-sizing: border-box; border: 1px solid var(--cib-color-stroke-neutral-primary); background: var(--cib-color-syntax-background-surface); border-radius: var(--cib-border-radius-large);&quot;&gt;&lt;code style=&quot;font-size: var(--cib-type-body1-font-size); line-height: var(--cib-type-body1-line-height); font-weight: var(--cib-type-body1-font-weight); font-variation-settings: var(--cib-type-body1-font-variation-settings);&quot;&gt;Промо-акции&lt;/code&gt;&lt;/pre&gt;&lt;pre style=&quot;margin-top: 0px; margin-bottom: 4px; padding: 10px; box-sizing: border-box; border: 1px solid var(--cib-color-stroke-neutral-primary); background: var(--cib-color-syntax-background-surface); border-radius: var(--cib-border-radius-large);&quot;&gt;&lt;code style=&quot;font-size: var(--cib-type-body1-font-size); line-height: var(--cib-type-body1-line-height); font-weight: var(--cib-type-body1-font-weight); font-variation-settings: var(--cib-type-body1-font-variation-settings);&quot;&gt;  (id промо-акции,&lt;/code&gt;&lt;/pre&gt;&lt;pre style=&quot;margin-top: 0px; margin-bottom: 4px; padding: 10px; box-sizing: border-box; border: 1px solid var(--cib-color-stroke-neutral-primary); background: var(--cib-color-syntax-background-surface); border-radius: var(--cib-border-radius-large);&quot;&gt;&lt;code style=&quot;font-size: var(--cib-type-body1-font-size); line-height: var(--cib-type-body1-line-height); font-weight: var(--cib-type-body1-font-weight); font-variation-settings: var(--cib-type-body1-font-variation-settings);&quot;&gt;   id товара,&lt;/code&gt;&lt;/pre&gt;&lt;pre style=&quot;margin-top: 0px; margin-bottom: 4px; padding: 10px; box-sizing: border-box; border: 1px solid var(--cib-color-stroke-neutral-primary); background: var(--cib-color-syntax-background-surface); border-radius: var(--cib-border-radius-large);&quot;&gt;&lt;code style=&quot;font-size: var(--cib-type-body1-font-size); line-height: var(--cib-type-body1-line-height); font-weight: var(--cib-type-body1-font-weight); font-variation-settings: var(--cib-type-body1-font-variation-settings);&quot;&gt;   дата начала промо,&lt;/code&gt;&lt;/pre&gt;&lt;pre style=&quot;margin-top: 0px; margin-bottom: 4px; padding: 10px; box-sizing: border-box; border: 1px solid var(--cib-color-stroke-neutral-primary); background: var(--cib-color-syntax-background-surface); border-radius: var(--cib-border-radius-large);&quot;&gt;&lt;code style=&quot;font-size: var(--cib-type-body1-font-size); line-height: var(--cib-type-body1-line-height); font-weight: var(--cib-type-body1-font-weight); font-variation-settings: var(--cib-type-body1-font-variation-settings);&quot;&gt;   дата окончания промо,&lt;/code&gt;&lt;/pre&gt;&lt;pre style=&quot;margin-top: 0px; margin-bottom: 4px; padding: 10px; box-sizing: border-box; border: 1px solid var(--cib-color-stroke-neutral-primary); background: var(--cib-color-syntax-background-surface); border-radius: var(--cib-border-radius-large);&quot;&gt;&lt;code style=&quot;font-size: var(--cib-type-body1-font-size); line-height: var(--cib-type-body1-line-height); font-weight: var(--cib-type-body1-font-weight); font-variation-settings: var(--cib-type-body1-font-variation-settings);&quot;&gt;   размер скидки)&lt;/code&gt;&lt;/pre&gt;&lt;/pre&gt;" style="rounded=1;whiteSpace=wrap;html=1;align=left;" parent="1" vertex="1">
          <mxGeometry x="-1600" y="920" width="210" height="160" as="geometry" />
        </mxCell>
        <mxCell id="pfpJNphU8wRYEitO8FyI-14" value="&lt;pre style=&quot;margin-top: 0px; margin-bottom: 4px; padding: 10px; box-sizing: border-box; border: 1px solid var(--cib-color-stroke-neutral-primary); background: var(--cib-color-syntax-background-surface); border-radius: var(--cib-border-radius-large); color: rgba(0, 0, 0, 0.894); line-height: 0%;&quot;&gt;&lt;pre style=&quot;margin-top: 0px; margin-bottom: 4px; padding: 10px; box-sizing: border-box; border: 1px solid var(--cib-color-stroke-neutral-primary); background: var(--cib-color-syntax-background-surface); border-radius: var(--cib-border-radius-large);&quot;&gt;&lt;code style=&quot;line-height: var(--cib-type-body1-line-height); font-variation-settings: var(--cib-type-body1-font-variation-settings);&quot;&gt;&lt;b style=&quot;&quot;&gt;&lt;font style=&quot;font-size: 18px;&quot;&gt;Продажи&lt;/font&gt;&lt;/b&gt;&lt;/code&gt;&lt;/pre&gt;&lt;pre style=&quot;font-size: 14px; margin-top: 0px; margin-bottom: 4px; padding: 10px; box-sizing: border-box; border: 1px solid var(--cib-color-stroke-neutral-primary); background: var(--cib-color-syntax-background-surface); border-radius: var(--cib-border-radius-large);&quot;&gt;&lt;code style=&quot;font-size: var(--cib-type-body1-font-size); line-height: var(--cib-type-body1-line-height); font-weight: var(--cib-type-body1-font-weight); font-variation-settings: var(--cib-type-body1-font-variation-settings);&quot;&gt; (id заказа,&lt;/code&gt;&lt;/pre&gt;&lt;pre style=&quot;font-size: 14px; margin-top: 0px; margin-bottom: 4px; padding: 10px; box-sizing: border-box; border: 1px solid var(--cib-color-stroke-neutral-primary); background: var(--cib-color-syntax-background-surface); border-radius: var(--cib-border-radius-large);&quot;&gt;&lt;code style=&quot;font-size: var(--cib-type-body1-font-size); line-height: var(--cib-type-body1-line-height); font-weight: var(--cib-type-body1-font-weight); font-variation-settings: var(--cib-type-body1-font-variation-settings);&quot;&gt;  время продажи,&lt;/code&gt;&lt;/pre&gt;&lt;pre style=&quot;font-size: 14px; margin-top: 0px; margin-bottom: 4px; padding: 10px; box-sizing: border-box; border: 1px solid var(--cib-color-stroke-neutral-primary); background: var(--cib-color-syntax-background-surface); border-radius: var(--cib-border-radius-large);&quot;&gt;&lt;code style=&quot;font-size: var(--cib-type-body1-font-size); line-height: var(--cib-type-body1-line-height); font-weight: var(--cib-type-body1-font-weight); font-variation-settings: var(--cib-type-body1-font-variation-settings);&quot;&gt;  название товара,&lt;/code&gt;&lt;/pre&gt;&lt;pre style=&quot;font-size: 14px; margin-top: 0px; margin-bottom: 4px; padding: 10px; box-sizing: border-box; border: 1px solid var(--cib-color-stroke-neutral-primary); background: var(--cib-color-syntax-background-surface); border-radius: var(--cib-border-radius-large);&quot;&gt;&lt;code style=&quot;font-size: var(--cib-type-body1-font-size); line-height: var(--cib-type-body1-line-height); font-weight: var(--cib-type-body1-font-weight); font-variation-settings: var(--cib-type-body1-font-variation-settings);&quot;&gt;  цена,&lt;/code&gt;&lt;/pre&gt;&lt;pre style=&quot;font-size: 14px; margin-top: 0px; margin-bottom: 4px; padding: 10px; box-sizing: border-box; border: 1px solid var(--cib-color-stroke-neutral-primary); background: var(--cib-color-syntax-background-surface); border-radius: var(--cib-border-radius-large);&quot;&gt;&lt;code style=&quot;font-size: var(--cib-type-body1-font-size); line-height: var(--cib-type-body1-line-height); font-weight: var(--cib-type-body1-font-weight); font-variation-settings: var(--cib-type-body1-font-variation-settings);&quot;&gt;  бренд,&lt;/code&gt;&lt;/pre&gt;&lt;pre style=&quot;font-size: 14px; margin-top: 0px; margin-bottom: 4px; padding: 10px; box-sizing: border-box; border: 1px solid var(--cib-color-stroke-neutral-primary); background: var(--cib-color-syntax-background-surface); border-radius: var(--cib-border-radius-large);&quot;&gt;&lt;code style=&quot;font-size: var(--cib-type-body1-font-size); line-height: var(--cib-type-body1-line-height); font-weight: var(--cib-type-body1-font-weight); font-variation-settings: var(--cib-type-body1-font-variation-settings);&quot;&gt;  модель товара,&lt;/code&gt;&lt;/pre&gt;&lt;pre style=&quot;font-size: 14px; margin-top: 0px; margin-bottom: 4px; padding: 10px; box-sizing: border-box; border: 1px solid var(--cib-color-stroke-neutral-primary); background: var(--cib-color-syntax-background-surface); border-radius: var(--cib-border-radius-large);&quot;&gt;&lt;code style=&quot;font-size: var(--cib-type-body1-font-size); line-height: var(--cib-type-body1-line-height); font-weight: var(--cib-type-body1-font-weight); font-variation-settings: var(--cib-type-body1-font-variation-settings);&quot;&gt;  категория,&lt;/code&gt;&lt;/pre&gt;&lt;pre style=&quot;font-size: 14px; margin-top: 0px; margin-bottom: 4px; padding: 10px; box-sizing: border-box; border: 1px solid var(--cib-color-stroke-neutral-primary); background: var(--cib-color-syntax-background-surface); border-radius: var(--cib-border-radius-large);&quot;&gt;&lt;code style=&quot;font-size: var(--cib-type-body1-font-size); line-height: var(--cib-type-body1-line-height); font-weight: var(--cib-type-body1-font-weight); font-variation-settings: var(--cib-type-body1-font-variation-settings);&quot;&gt;  cookies покупателя,&lt;/code&gt;&lt;/pre&gt;&lt;pre style=&quot;font-size: 14px; margin-top: 0px; margin-bottom: 4px; padding: 10px; box-sizing: border-box; border: 1px solid var(--cib-color-stroke-neutral-primary); background: var(--cib-color-syntax-background-surface); border-radius: var(--cib-border-radius-large);&quot;&gt;&lt;code style=&quot;font-size: var(--cib-type-body1-font-size); line-height: var(--cib-type-body1-line-height); font-weight: var(--cib-type-body1-font-weight); font-variation-settings: var(--cib-type-body1-font-variation-settings);&quot;&gt;  сумма)&lt;/code&gt;&lt;/pre&gt;&lt;/pre&gt;" style="rounded=1;whiteSpace=wrap;html=1;align=left;" parent="1" vertex="1">
          <mxGeometry x="-1600" y="520" width="210" height="250" as="geometry" />
        </mxCell>
        <mxCell id="pfpJNphU8wRYEitO8FyI-15" value="&lt;pre style=&quot;margin-top: 0px; margin-bottom: 4px; padding: 10px; box-sizing: border-box; border: 1px solid var(--cib-color-stroke-neutral-primary); background: var(--cib-color-syntax-background-surface); border-radius: var(--cib-border-radius-large); color: rgba(0, 0, 0, 0.894); line-height: 0%;&quot;&gt;&lt;pre style=&quot;margin-top: 0px; margin-bottom: 4px; padding: 10px; box-sizing: border-box; border: 1px solid var(--cib-color-stroke-neutral-primary); background: var(--cib-color-syntax-background-surface); border-radius: var(--cib-border-radius-large);&quot;&gt;&lt;code style=&quot;line-height: var(--cib-type-body1-line-height); font-variation-settings: var(--cib-type-body1-font-variation-settings);&quot;&gt;&lt;b style=&quot;&quot;&gt;&lt;font style=&quot;font-size: 18px;&quot;&gt;Личные кабинеты&lt;/font&gt;&lt;/b&gt;&lt;/code&gt;&lt;/pre&gt;&lt;pre style=&quot;font-size: 14px; margin-top: 0px; margin-bottom: 4px; padding: 10px; box-sizing: border-box; border: 1px solid var(--cib-color-stroke-neutral-primary); background: var(--cib-color-syntax-background-surface); border-radius: var(--cib-border-radius-large);&quot;&gt;&lt;code style=&quot;font-size: var(--cib-type-body1-font-size); line-height: var(--cib-type-body1-line-height); font-weight: var(--cib-type-body1-font-weight); font-variation-settings: var(--cib-type-body1-font-variation-settings);&quot;&gt; (id личного кабинета,&lt;/code&gt;&lt;/pre&gt;&lt;pre style=&quot;font-size: 14px; margin-top: 0px; margin-bottom: 4px; padding: 10px; box-sizing: border-box; border: 1px solid var(--cib-color-stroke-neutral-primary); background: var(--cib-color-syntax-background-surface); border-radius: var(--cib-border-radius-large);&quot;&gt;&lt;code style=&quot;font-size: var(--cib-type-body1-font-size); line-height: var(--cib-type-body1-line-height); font-weight: var(--cib-type-body1-font-weight); font-variation-settings: var(--cib-type-body1-font-variation-settings);&quot;&gt;  cookies покупателя,&lt;/code&gt;&lt;/pre&gt;&lt;pre style=&quot;font-size: 14px; margin-top: 0px; margin-bottom: 4px; padding: 10px; box-sizing: border-box; border: 1px solid var(--cib-color-stroke-neutral-primary); background: var(--cib-color-syntax-background-surface); border-radius: var(--cib-border-radius-large);&quot;&gt;&lt;code style=&quot;font-size: var(--cib-type-body1-font-size); line-height: var(--cib-type-body1-line-height); font-weight: var(--cib-type-body1-font-weight); font-variation-settings: var(--cib-type-body1-font-variation-settings);&quot;&gt;  ФИО,&lt;/code&gt;&lt;/pre&gt;&lt;pre style=&quot;font-size: 14px; margin-top: 0px; margin-bottom: 4px; padding: 10px; box-sizing: border-box; border: 1px solid var(--cib-color-stroke-neutral-primary); background: var(--cib-color-syntax-background-surface); border-radius: var(--cib-border-radius-large);&quot;&gt;&lt;code style=&quot;font-size: var(--cib-type-body1-font-size); line-height: var(--cib-type-body1-line-height); font-weight: var(--cib-type-body1-font-weight); font-variation-settings: var(--cib-type-body1-font-variation-settings);&quot;&gt;  пол,&lt;/code&gt;&lt;/pre&gt;&lt;pre style=&quot;font-size: 14px; margin-top: 0px; margin-bottom: 4px; padding: 10px; box-sizing: border-box; border: 1px solid var(--cib-color-stroke-neutral-primary); background: var(--cib-color-syntax-background-surface); border-radius: var(--cib-border-radius-large);&quot;&gt;&lt;code style=&quot;font-size: var(--cib-type-body1-font-size); line-height: var(--cib-type-body1-line-height); font-weight: var(--cib-type-body1-font-weight); font-variation-settings: var(--cib-type-body1-font-variation-settings);&quot;&gt;  дата рождения,&lt;/code&gt;&lt;/pre&gt;&lt;pre style=&quot;font-size: 14px; margin-top: 0px; margin-bottom: 4px; padding: 10px; box-sizing: border-box; border: 1px solid var(--cib-color-stroke-neutral-primary); background: var(--cib-color-syntax-background-surface); border-radius: var(--cib-border-radius-large);&quot;&gt;&lt;code style=&quot;font-size: var(--cib-type-body1-font-size); line-height: var(--cib-type-body1-line-height); font-weight: var(--cib-type-body1-font-weight); font-variation-settings: var(--cib-type-body1-font-variation-settings);&quot;&gt;  email,&lt;/code&gt;&lt;/pre&gt;&lt;pre style=&quot;font-size: 14px; margin-top: 0px; margin-bottom: 4px; padding: 10px; box-sizing: border-box; border: 1px solid var(--cib-color-stroke-neutral-primary); background: var(--cib-color-syntax-background-surface); border-radius: var(--cib-border-radius-large);&quot;&gt;&lt;code style=&quot;font-size: var(--cib-type-body1-font-size); line-height: var(--cib-type-body1-line-height); font-weight: var(--cib-type-body1-font-weight); font-variation-settings: var(--cib-type-body1-font-variation-settings);&quot;&gt;  телефон)&lt;/code&gt;&lt;/pre&gt;&lt;/pre&gt;" style="rounded=1;whiteSpace=wrap;html=1;align=left;" parent="1" vertex="1">
          <mxGeometry x="-1600" y="270" width="210" height="200" as="geometry" />
        </mxCell>
        <mxCell id="pfpJNphU8wRYEitO8FyI-16" value="&lt;pre style=&quot;margin-top: 0px; margin-bottom: 4px; padding: 10px; box-sizing: border-box; border: 1px solid var(--cib-color-stroke-neutral-primary); background: var(--cib-color-syntax-background-surface); border-radius: var(--cib-border-radius-large); color: rgba(0, 0, 0, 0.894); line-height: 0%;&quot;&gt;&lt;pre style=&quot;margin-top: 0px; margin-bottom: 4px; padding: 10px; box-sizing: border-box; border: 1px solid var(--cib-color-stroke-neutral-primary); background: var(--cib-color-syntax-background-surface); border-radius: var(--cib-border-radius-large);&quot;&gt;&lt;code style=&quot;line-height: var(--cib-type-body1-line-height); font-variation-settings: var(--cib-type-body1-font-variation-settings);&quot;&gt;&lt;b style=&quot;&quot;&gt;&lt;font style=&quot;font-size: 18px;&quot;&gt;Промо-акции&lt;/font&gt;&lt;/b&gt;&lt;/code&gt;&lt;/pre&gt;&lt;pre style=&quot;font-size: 14px; margin-top: 0px; margin-bottom: 4px; padding: 10px; box-sizing: border-box; border: 1px solid var(--cib-color-stroke-neutral-primary); background: var(--cib-color-syntax-background-surface); border-radius: var(--cib-border-radius-large);&quot;&gt;&lt;code style=&quot;font-size: var(--cib-type-body1-font-size); line-height: var(--cib-type-body1-line-height); font-weight: var(--cib-type-body1-font-weight); font-variation-settings: var(--cib-type-body1-font-variation-settings);&quot;&gt;  (id промо-акции,&lt;/code&gt;&lt;/pre&gt;&lt;pre style=&quot;font-size: 14px; margin-top: 0px; margin-bottom: 4px; padding: 10px; box-sizing: border-box; border: 1px solid var(--cib-color-stroke-neutral-primary); background: var(--cib-color-syntax-background-surface); border-radius: var(--cib-border-radius-large);&quot;&gt;&lt;code style=&quot;font-size: var(--cib-type-body1-font-size); line-height: var(--cib-type-body1-line-height); font-weight: var(--cib-type-body1-font-weight); font-variation-settings: var(--cib-type-body1-font-variation-settings);&quot;&gt;   id товара,&lt;/code&gt;&lt;/pre&gt;&lt;pre style=&quot;font-size: 14px; margin-top: 0px; margin-bottom: 4px; padding: 10px; box-sizing: border-box; border: 1px solid var(--cib-color-stroke-neutral-primary); background: var(--cib-color-syntax-background-surface); border-radius: var(--cib-border-radius-large);&quot;&gt;&lt;code style=&quot;font-size: var(--cib-type-body1-font-size); line-height: var(--cib-type-body1-line-height); font-weight: var(--cib-type-body1-font-weight); font-variation-settings: var(--cib-type-body1-font-variation-settings);&quot;&gt;   дата начала промо,&lt;/code&gt;&lt;/pre&gt;&lt;pre style=&quot;font-size: 14px; margin-top: 0px; margin-bottom: 4px; padding: 10px; box-sizing: border-box; border: 1px solid var(--cib-color-stroke-neutral-primary); background: var(--cib-color-syntax-background-surface); border-radius: var(--cib-border-radius-large);&quot;&gt;&lt;code style=&quot;font-size: var(--cib-type-body1-font-size); line-height: var(--cib-type-body1-line-height); font-weight: var(--cib-type-body1-font-weight); font-variation-settings: var(--cib-type-body1-font-variation-settings);&quot;&gt;   дата окончания промо,&lt;/code&gt;&lt;/pre&gt;&lt;pre style=&quot;font-size: 14px; margin-top: 0px; margin-bottom: 4px; padding: 10px; box-sizing: border-box; border: 1px solid var(--cib-color-stroke-neutral-primary); background: var(--cib-color-syntax-background-surface); border-radius: var(--cib-border-radius-large);&quot;&gt;&lt;code style=&quot;font-size: var(--cib-type-body1-font-size); line-height: var(--cib-type-body1-line-height); font-weight: var(--cib-type-body1-font-weight); font-variation-settings: var(--cib-type-body1-font-variation-settings);&quot;&gt;   размер скидки)&lt;/code&gt;&lt;/pre&gt;&lt;/pre&gt;" style="rounded=1;whiteSpace=wrap;html=1;align=left;" parent="1" vertex="1">
          <mxGeometry x="-1600" y="920" width="210" height="160" as="geometry" />
        </mxCell>
        <mxCell id="pfpJNphU8wRYEitO8FyI-17" value="&lt;pre style=&quot;margin-top: 0px; margin-bottom: 4px; padding: 10px; box-sizing: border-box; border: 1px solid var(--cib-color-stroke-neutral-primary); background: var(--cib-color-syntax-background-surface); border-radius: var(--cib-border-radius-large); line-height: 0%;&quot;&gt;&lt;pre style=&quot;color: rgba(0, 0, 0, 0.894); margin-top: 0px; margin-bottom: 4px; padding: 10px; box-sizing: border-box; border: 1px solid var(--cib-color-stroke-neutral-primary); background: var(--cib-color-syntax-background-surface); border-radius: var(--cib-border-radius-large);&quot;&gt;&lt;code style=&quot;line-height: var(--cib-type-body1-line-height); font-variation-settings: var(--cib-type-body1-font-variation-settings);&quot;&gt;&lt;b style=&quot;&quot;&gt;&lt;font style=&quot;font-size: 18px;&quot;&gt;Промо-акции&lt;/font&gt;&lt;/b&gt;&lt;/code&gt;&lt;/pre&gt;&lt;pre style=&quot;font-size: 14px; margin-top: 0px; margin-bottom: 4px; padding: 10px; box-sizing: border-box; border: 1px solid var(--cib-color-stroke-neutral-primary); background: var(--cib-color-syntax-background-surface); border-radius: var(--cib-border-radius-large);&quot;&gt;&lt;code style=&quot;font-size: var(--cib-type-body1-font-size); line-height: var(--cib-type-body1-line-height); font-weight: var(--cib-type-body1-font-weight); font-variation-settings: var(--cib-type-body1-font-variation-settings);&quot;&gt;&lt;font color=&quot;rgba(0, 0, 0, 0.894)&quot;&gt;  (&lt;/font&gt;&lt;font color=&quot;#ff0000&quot;&gt;id промо-акции PK&lt;/font&gt;&lt;font color=&quot;rgba(0, 0, 0, 0.894)&quot;&gt;,&lt;/font&gt;&lt;/code&gt;&lt;/pre&gt;&lt;pre style=&quot;font-size: 14px; margin-top: 0px; margin-bottom: 4px; padding: 10px; box-sizing: border-box; border: 1px solid var(--cib-color-stroke-neutral-primary); background: var(--cib-color-syntax-background-surface); border-radius: var(--cib-border-radius-large);&quot;&gt;&lt;code style=&quot;font-size: var(--cib-type-body1-font-size); line-height: var(--cib-type-body1-line-height); font-weight: var(--cib-type-body1-font-weight); font-variation-settings: var(--cib-type-body1-font-variation-settings);&quot;&gt;&lt;font color=&quot;rgba(0, 0, 0, 0.894)&quot;&gt;   &lt;/font&gt;&lt;font color=&quot;#006600&quot;&gt;id товара FK&lt;/font&gt;&lt;font color=&quot;rgba(0, 0, 0, 0.894)&quot;&gt;,&lt;/font&gt;&lt;/code&gt;&lt;/pre&gt;&lt;pre style=&quot;color: rgba(0, 0, 0, 0.894); font-size: 14px; margin-top: 0px; margin-bottom: 4px; padding: 10px; box-sizing: border-box; border: 1px solid var(--cib-color-stroke-neutral-primary); background: var(--cib-color-syntax-background-surface); border-radius: var(--cib-border-radius-large);&quot;&gt;&lt;code style=&quot;font-size: var(--cib-type-body1-font-size); line-height: var(--cib-type-body1-line-height); font-weight: var(--cib-type-body1-font-weight); font-variation-settings: var(--cib-type-body1-font-variation-settings);&quot;&gt;   дата начала промо,&lt;/code&gt;&lt;/pre&gt;&lt;pre style=&quot;color: rgba(0, 0, 0, 0.894); font-size: 14px; margin-top: 0px; margin-bottom: 4px; padding: 10px; box-sizing: border-box; border: 1px solid var(--cib-color-stroke-neutral-primary); background: var(--cib-color-syntax-background-surface); border-radius: var(--cib-border-radius-large);&quot;&gt;&lt;code style=&quot;font-size: var(--cib-type-body1-font-size); line-height: var(--cib-type-body1-line-height); font-weight: var(--cib-type-body1-font-weight); font-variation-settings: var(--cib-type-body1-font-variation-settings);&quot;&gt;   дата окончания промо,&lt;/code&gt;&lt;/pre&gt;&lt;pre style=&quot;color: rgba(0, 0, 0, 0.894); font-size: 14px; margin-top: 0px; margin-bottom: 4px; padding: 10px; box-sizing: border-box; border: 1px solid var(--cib-color-stroke-neutral-primary); background: var(--cib-color-syntax-background-surface); border-radius: var(--cib-border-radius-large);&quot;&gt;&lt;code style=&quot;font-size: var(--cib-type-body1-font-size); line-height: var(--cib-type-body1-line-height); font-weight: var(--cib-type-body1-font-weight); font-variation-settings: var(--cib-type-body1-font-variation-settings);&quot;&gt;   размер скидки)&lt;/code&gt;&lt;/pre&gt;&lt;/pre&gt;" style="rounded=1;whiteSpace=wrap;html=1;align=left;" parent="1" vertex="1">
          <mxGeometry x="-1370" y="1150" width="210" height="160" as="geometry" />
        </mxCell>
        <mxCell id="pfpJNphU8wRYEitO8FyI-22" value="&lt;pre style=&quot;margin-top: 0px; margin-bottom: 4px; padding: 10px; box-sizing: border-box; border: 1px solid var(--cib-color-stroke-neutral-primary); background: var(--cib-color-syntax-background-surface); border-radius: var(--cib-border-radius-large); color: rgba(0, 0, 0, 0.894); line-height: 0%;&quot;&gt;&lt;pre style=&quot;margin-top: 0px; margin-bottom: 4px; padding: 10px; box-sizing: border-box; border: 1px solid var(--cib-color-stroke-neutral-primary); background: var(--cib-color-syntax-background-surface); border-radius: var(--cib-border-radius-large);&quot;&gt;&lt;code style=&quot;line-height: var(--cib-type-body1-line-height); font-variation-settings: var(--cib-type-body1-font-variation-settings);&quot;&gt;&lt;b style=&quot;&quot;&gt;&lt;font style=&quot;font-size: 18px;&quot;&gt;Аналитика продаж&lt;/font&gt;&lt;/b&gt;&lt;/code&gt;&lt;/pre&gt;&lt;pre style=&quot;font-size: 14px; margin-top: 0px; margin-bottom: 4px; padding: 10px; box-sizing: border-box; border: 1px solid var(--cib-color-stroke-neutral-primary); background: var(--cib-color-syntax-background-surface); border-radius: var(--cib-border-radius-large);&quot;&gt;&lt;code style=&quot;font-size: var(--cib-type-body1-font-size); line-height: var(--cib-type-body1-line-height); font-weight: var(--cib-type-body1-font-weight); font-variation-settings: var(--cib-type-body1-font-variation-settings);&quot;&gt; (id клиента,&lt;/code&gt;&lt;/pre&gt;&lt;pre style=&quot;font-size: 14px; margin-top: 0px; margin-bottom: 4px; padding: 10px; box-sizing: border-box; border: 1px solid var(--cib-color-stroke-neutral-primary); background: var(--cib-color-syntax-background-surface); border-radius: var(--cib-border-radius-large);&quot;&gt;&lt;code style=&quot;font-size: var(--cib-type-body1-font-size); line-height: var(--cib-type-body1-line-height); font-weight: var(--cib-type-body1-font-weight); font-variation-settings: var(--cib-type-body1-font-variation-settings);&quot;&gt;  пол,&lt;/code&gt;&lt;/pre&gt;&lt;pre style=&quot;font-size: 14px; margin-top: 0px; margin-bottom: 4px; padding: 10px; box-sizing: border-box; border: 1px solid var(--cib-color-stroke-neutral-primary); background: var(--cib-color-syntax-background-surface); border-radius: var(--cib-border-radius-large);&quot;&gt;&lt;code style=&quot;font-size: var(--cib-type-body1-font-size); line-height: var(--cib-type-body1-line-height); font-weight: var(--cib-type-body1-font-weight); font-variation-settings: var(--cib-type-body1-font-variation-settings);&quot;&gt;  категория возраста,&lt;/code&gt;&lt;/pre&gt;&lt;pre style=&quot;font-size: 14px; margin-top: 0px; margin-bottom: 4px; padding: 10px; box-sizing: border-box; border: 1px solid var(--cib-color-stroke-neutral-primary); background: var(--cib-color-syntax-background-surface); border-radius: var(--cib-border-radius-large);&quot;&gt;&lt;code style=&quot;font-size: var(--cib-type-body1-font-size); line-height: var(--cib-type-body1-line-height); font-weight: var(--cib-type-body1-font-weight); font-variation-settings: var(--cib-type-body1-font-variation-settings);&quot;&gt;  email,&lt;/code&gt;&lt;/pre&gt;&lt;pre style=&quot;font-size: 14px; margin-top: 0px; margin-bottom: 4px; padding: 10px; box-sizing: border-box; border: 1px solid var(--cib-color-stroke-neutral-primary); background: var(--cib-color-syntax-background-surface); border-radius: var(--cib-border-radius-large);&quot;&gt;  телефон,&lt;/pre&gt;&lt;pre style=&quot;font-size: 14px; margin-top: 0px; margin-bottom: 4px; padding: 10px; box-sizing: border-box; border: 1px solid var(--cib-color-stroke-neutral-primary); background: var(--cib-color-syntax-background-surface); border-radius: var(--cib-border-radius-large);&quot;&gt;  товар,&lt;/pre&gt;&lt;pre style=&quot;font-size: 14px; margin-top: 0px; margin-bottom: 4px; padding: 10px; box-sizing: border-box; border: 1px solid var(--cib-color-stroke-neutral-primary); background: var(--cib-color-syntax-background-surface); border-radius: var(--cib-border-radius-large);&quot;&gt;  который чаще всего покупал&lt;/pre&gt;&lt;pre style=&quot;font-size: 14px; margin-top: 0px; margin-bottom: 4px; padding: 10px; box-sizing: border-box; border: 1px solid var(--cib-color-stroke-neutral-primary); background: var(--cib-color-syntax-background-surface); border-radius: var(--cib-border-radius-large);&quot;&gt;  клиент за последний месяц,&lt;/pre&gt;&lt;pre style=&quot;font-size: 14px; margin-top: 0px; margin-bottom: 4px; padding: 10px; box-sizing: border-box; border: 1px solid var(--cib-color-stroke-neutral-primary); background: var(--cib-color-syntax-background-surface); border-radius: var(--cib-border-radius-large);&quot;&gt;  бренд и категория товаров,&lt;/pre&gt;&lt;pre style=&quot;font-size: 14px; margin-top: 0px; margin-bottom: 4px; padding: 10px; box-sizing: border-box; border: 1px solid var(--cib-color-stroke-neutral-primary); background: var(--cib-color-syntax-background-surface); border-radius: var(--cib-border-radius-large);&quot;&gt;  которые чаще всего покупал клиент,&lt;/pre&gt;&lt;pre style=&quot;font-size: 14px; margin-top: 0px; margin-bottom: 4px; padding: 10px; box-sizing: border-box; border: 1px solid var(--cib-color-stroke-neutral-primary); background: var(--cib-color-syntax-background-surface); border-radius: var(--cib-border-radius-large);&quot;&gt;  сумма потраченная клиентом за месяц,&lt;/pre&gt;&lt;pre style=&quot;font-size: 14px; margin-top: 0px; margin-bottom: 4px; padding: 10px; box-sizing: border-box; border: 1px solid var(--cib-color-stroke-neutral-primary); background: var(--cib-color-syntax-background-surface); border-radius: var(--cib-border-radius-large);&quot;&gt;  количество товаров купленных со скидкой,&lt;/pre&gt;&lt;pre style=&quot;font-size: 14px; margin-top: 0px; margin-bottom: 4px; padding: 10px; box-sizing: border-box; border: 1px solid var(--cib-color-stroke-neutral-primary); background: var(--cib-color-syntax-background-surface); border-radius: var(--cib-border-radius-large);&quot;&gt;  месяц,&lt;/pre&gt;&lt;pre style=&quot;font-size: 14px; margin-top: 0px; margin-bottom: 4px; padding: 10px; box-sizing: border-box; border: 1px solid var(--cib-color-stroke-neutral-primary); background: var(--cib-color-syntax-background-surface); border-radius: var(--cib-border-radius-large);&quot;&gt;  квартал,&lt;/pre&gt;&lt;pre style=&quot;font-size: 14px; margin-top: 0px; margin-bottom: 4px; padding: 10px; box-sizing: border-box; border: 1px solid var(--cib-color-stroke-neutral-primary); background: var(--cib-color-syntax-background-surface); border-radius: var(--cib-border-radius-large);&quot;&gt;  год)&lt;/pre&gt;&lt;/pre&gt;" style="rounded=1;whiteSpace=wrap;html=1;align=left;" parent="1" vertex="1">
          <mxGeometry x="-772.5" y="500" width="355" height="450" as="geometry" />
        </mxCell>
        <mxCell id="699Mtnb7MZ2smKBeBavD-2" value="&lt;pre style=&quot;margin-top: 0px; margin-bottom: 4px; padding: 10px; box-sizing: border-box; border: 1px solid var(--cib-color-stroke-neutral-primary); background: var(--cib-color-syntax-background-surface); border-radius: var(--cib-border-radius-large); color: rgba(0, 0, 0, 0.894); line-height: 0%;&quot;&gt;&lt;code style=&quot;line-height: var(--cib-type-body1-line-height); font-variation-settings: var(--cib-type-body1-font-variation-settings);&quot;&gt;&lt;b style=&quot;&quot;&gt;&lt;font style=&quot;font-size: 18px;&quot;&gt;Контакты&lt;/font&gt;&lt;/b&gt;&lt;/code&gt;&lt;/pre&gt;&lt;pre style=&quot;margin-top: 0px; margin-bottom: 4px; padding: 10px; box-sizing: border-box; border: 1px solid var(--cib-color-stroke-neutral-primary); background: var(--cib-color-syntax-background-surface); border-radius: var(--cib-border-radius-large); font-size: 14px; line-height: 0%;&quot;&gt;&lt;code style=&quot;color: rgba(0, 0, 0, 0.894); font-size: var(--cib-type-body1-font-size); line-height: var(--cib-type-body1-line-height); font-weight: var(--cib-type-body1-font-weight); font-variation-settings: var(--cib-type-body1-font-variation-settings);&quot;&gt;  (&lt;/code&gt;&lt;font color=&quot;#ff3333&quot;&gt;id контакта PK&lt;/font&gt;&lt;span style=&quot;color: rgba(0, 0, 0, 0.894);&quot;&gt;,&lt;/span&gt;&lt;/pre&gt;&lt;pre style=&quot;margin-top: 0px; margin-bottom: 4px; padding: 10px; box-sizing: border-box; border: 1px solid var(--cib-color-stroke-neutral-primary); background: var(--cib-color-syntax-background-surface); border-radius: var(--cib-border-radius-large); color: rgba(0, 0, 0, 0.894); font-size: 14px; line-height: 0%;&quot;&gt;&lt;code style=&quot;font-size: var(--cib-type-body1-font-size); line-height: var(--cib-type-body1-line-height); font-weight: var(--cib-type-body1-font-weight); font-variation-settings: var(--cib-type-body1-font-variation-settings);&quot;&gt;  email,&lt;/code&gt;&lt;/pre&gt;&lt;pre style=&quot;margin-top: 0px; margin-bottom: 4px; padding: 10px; box-sizing: border-box; border: 1px solid var(--cib-color-stroke-neutral-primary); background: var(--cib-color-syntax-background-surface); border-radius: var(--cib-border-radius-large); color: rgba(0, 0, 0, 0.894); font-size: 14px; line-height: 0%;&quot;&gt;&lt;code style=&quot;font-size: var(--cib-type-body1-font-size); line-height: var(--cib-type-body1-line-height); font-weight: var(--cib-type-body1-font-weight); font-variation-settings: var(--cib-type-body1-font-variation-settings);&quot;&gt;  phone,&lt;/code&gt;&lt;/pre&gt;&lt;pre style=&quot;margin-top: 0px; margin-bottom: 4px; padding: 10px; box-sizing: border-box; border: 1px solid var(--cib-color-stroke-neutral-primary); background: var(--cib-color-syntax-background-surface); border-radius: var(--cib-border-radius-large); color: rgba(0, 0, 0, 0.894); font-size: 14px; line-height: 0%;&quot;&gt;&lt;code style=&quot;font-size: var(--cib-type-body1-font-size); line-height: var(--cib-type-body1-line-height); font-weight: var(--cib-type-body1-font-weight); font-variation-settings: var(--cib-type-body1-font-variation-settings);&quot;&gt;  &lt;/code&gt;&lt;font style=&quot;font-size: var(--cib-type-body1-font-size); font-weight: var(--cib-type-body1-font-weight); font-family: Helvetica; border-color: var(--border-color);&quot; color=&quot;#006600&quot;&gt;id личного кабинета FK&lt;/font&gt;&lt;font style=&quot;font-size: var(--cib-type-body1-font-size); font-weight: var(--cib-type-body1-font-weight); font-family: Helvetica; border-color: var(--border-color);&quot; color=&quot;rgba(0, 0, 0, 0.894)&quot;&gt;,&lt;/font&gt;)&lt;/pre&gt;" style="rounded=1;whiteSpace=wrap;html=1;align=left;" vertex="1" parent="1">
          <mxGeometry x="-1320" y="280" width="230" height="140" as="geometry" />
        </mxCell>
        <mxCell id="699Mtnb7MZ2smKBeBavD-8" style="edgeStyle=orthogonalEdgeStyle;rounded=0;orthogonalLoop=1;jettySize=auto;html=1;" edge="1" parent="1" source="699Mtnb7MZ2smKBeBavD-5" target="pfpJNphU8wRYEitO8FyI-10">
          <mxGeometry relative="1" as="geometry" />
        </mxCell>
        <mxCell id="699Mtnb7MZ2smKBeBavD-5" value="&lt;pre style=&quot;margin-top: 0px; margin-bottom: 4px; padding: 10px; box-sizing: border-box; border: 1px solid var(--cib-color-stroke-neutral-primary); background: var(--cib-color-syntax-background-surface); border-radius: var(--cib-border-radius-large); color: rgba(0, 0, 0, 0.894); line-height: 0%;&quot;&gt;&lt;span style=&quot;font-size: 18px;&quot;&gt;&lt;b&gt;Бренды&lt;/b&gt;&lt;/span&gt;&lt;/pre&gt;&lt;pre style=&quot;margin-top: 0px; margin-bottom: 4px; padding: 10px; box-sizing: border-box; border: 1px solid var(--cib-color-stroke-neutral-primary); background: var(--cib-color-syntax-background-surface); border-radius: var(--cib-border-radius-large); font-size: 14px; line-height: 0%;&quot;&gt;&lt;code style=&quot;color: rgba(0, 0, 0, 0.894); font-size: var(--cib-type-body1-font-size); line-height: var(--cib-type-body1-line-height); font-weight: var(--cib-type-body1-font-weight); font-variation-settings: var(--cib-type-body1-font-variation-settings);&quot;&gt;  (&lt;/code&gt;&lt;font color=&quot;#ff3333&quot;&gt;id_бренда PK&lt;/font&gt;&lt;span style=&quot;color: rgba(0, 0, 0, 0.894);&quot;&gt;,&lt;/span&gt;&lt;/pre&gt;&lt;pre style=&quot;margin-top: 0px; margin-bottom: 4px; padding: 10px; box-sizing: border-box; border: 1px solid var(--cib-color-stroke-neutral-primary); background: var(--cib-color-syntax-background-surface); border-radius: var(--cib-border-radius-large); color: rgba(0, 0, 0, 0.894); font-size: 14px; line-height: 0%;&quot;&gt;&lt;code style=&quot;font-size: var(--cib-type-body1-font-size); line-height: var(--cib-type-body1-line-height); font-weight: var(--cib-type-body1-font-weight); font-variation-settings: var(--cib-type-body1-font-variation-settings);&quot;&gt;  &lt;/code&gt;&lt;code style=&quot;font-size: var(--cib-type-body1-font-size); font-weight: var(--cib-type-body1-font-weight); white-space: normal; line-height: var(--cib-type-body1-line-height); font-variation-settings: var(--cib-type-body1-font-variation-settings);&quot;&gt;название бренда&lt;/code&gt;&lt;span style=&quot;font-family: Helvetica; white-space: normal;&quot;&gt;)&lt;/span&gt;&lt;/pre&gt;" style="rounded=1;whiteSpace=wrap;html=1;align=left;" vertex="1" parent="1">
          <mxGeometry x="-997" y="940" width="170" height="90" as="geometry" />
        </mxCell>
        <mxCell id="699Mtnb7MZ2smKBeBavD-9" style="edgeStyle=orthogonalEdgeStyle;rounded=0;orthogonalLoop=1;jettySize=auto;html=1;entryX=0.75;entryY=1;entryDx=0;entryDy=0;" edge="1" parent="1" source="699Mtnb7MZ2smKBeBavD-6" target="pfpJNphU8wRYEitO8FyI-10">
          <mxGeometry relative="1" as="geometry" />
        </mxCell>
        <mxCell id="699Mtnb7MZ2smKBeBavD-6" value="&lt;pre style=&quot;margin-top: 0px; margin-bottom: 4px; padding: 10px; box-sizing: border-box; border: 1px solid var(--cib-color-stroke-neutral-primary); background: var(--cib-color-syntax-background-surface); border-radius: var(--cib-border-radius-large); color: rgba(0, 0, 0, 0.894); line-height: 0%;&quot;&gt;&lt;code style=&quot;line-height: var(--cib-type-body1-line-height); font-variation-settings: var(--cib-type-body1-font-variation-settings);&quot;&gt;&lt;b style=&quot;&quot;&gt;&lt;font style=&quot;font-size: 18px;&quot;&gt;Категории&lt;/font&gt;&lt;/b&gt;&lt;/code&gt;&lt;/pre&gt;&lt;pre style=&quot;margin-top: 0px; margin-bottom: 4px; padding: 10px; box-sizing: border-box; border: 1px solid var(--cib-color-stroke-neutral-primary); background: var(--cib-color-syntax-background-surface); border-radius: var(--cib-border-radius-large); font-size: 14px; line-height: 0%;&quot;&gt;&lt;code style=&quot;color: rgba(0, 0, 0, 0.894); font-size: var(--cib-type-body1-font-size); line-height: var(--cib-type-body1-line-height); font-weight: var(--cib-type-body1-font-weight); font-variation-settings: var(--cib-type-body1-font-variation-settings);&quot;&gt;  (&lt;/code&gt;&lt;font color=&quot;#ff3333&quot;&gt;id категории PK&lt;/font&gt;&lt;span style=&quot;color: rgba(0, 0, 0, 0.894);&quot;&gt;,&lt;/span&gt;&lt;/pre&gt;&lt;pre style=&quot;margin-top: 0px; margin-bottom: 4px; padding: 10px; box-sizing: border-box; border: 1px solid var(--cib-color-stroke-neutral-primary); background: var(--cib-color-syntax-background-surface); border-radius: var(--cib-border-radius-large); color: rgba(0, 0, 0, 0.894); font-size: 14px; line-height: 0%;&quot;&gt;&lt;code style=&quot;font-size: var(--cib-type-body1-font-size); line-height: var(--cib-type-body1-line-height); font-weight: var(--cib-type-body1-font-weight); font-variation-settings: var(--cib-type-body1-font-variation-settings);&quot;&gt; &lt;/code&gt;&lt;code style=&quot;font-size: var(--cib-type-body1-font-size); font-weight: var(--cib-type-body1-font-weight); white-space: normal; line-height: var(--cib-type-body1-line-height); font-variation-settings: var(--cib-type-body1-font-variation-settings);&quot;&gt;&amp;nbsp; название категории&lt;/code&gt;&lt;span style=&quot;font-family: Helvetica; white-space: normal;&quot;&gt;)&lt;/span&gt;&lt;/pre&gt;" style="rounded=1;whiteSpace=wrap;html=1;align=left;" vertex="1" parent="1">
          <mxGeometry x="-1030" y="1070" width="210" height="80" as="geometry" />
        </mxCell>
      </root>
    </mxGraphModel>
  </diagram>
</mxfile>
